<svg xmlns="http://www.w3.org/2000/svg" width="1em" height="1em" viewBox="0 0 24 24"><path fill="white" stroke="#4CC6E4" stroke-linecap="round" stroke-linejoin="round" stroke-width="1.5" d="M6.583 7.238c3.007.53 4.799 1.639 5.417 2.276c.618-.637 2.41-1.746 5.418-2.276c1.523-.269 2.285-.403 2.933.112C21 7.864 21 8.7 21 10.372v6.007c0 1.529 0 2.293-.416 2.77c-.417.477-1.333.639-3.166.962c-1.635.288-2.91.747-3.833 1.208c-.909.454-1.363.681-1.585.681s-.677-.227-1.585-.68c-.923-.462-2.198-.921-3.832-1.21c-1.834-.322-2.75-.484-3.167-.961S3 17.908 3 16.379v-6.007C3 8.7 3 7.864 3.649 7.35c.648-.515 1.41-.38 2.933-.112M12 9v13M8.5 3.059a6.29 6.29 0 0 1 7 .01M13.622 5.5a3.14 3.14 0 0 0-3.244-.01" color="currentColor"/></svg>